<svg xmlns="http://www.w3.org/2000/svg" id="svg8" width="64" height="64" version="1.1" viewBox="0 0 16.933 16.933"><g id="layer1" transform="translate(0 -280.067)"><g id="g1008" fill="none" stroke="#80cc28" stroke-dasharray="none" stroke-miterlimit="4" stroke-opacity="1" stroke-width=".397" transform="translate(0 -.258)"><path id="path828" stroke-linecap="round" stroke-linejoin="miter" d="M9.243 283.648l-2.628-.67-3.97 1.057v10.055l3.97-1.059 3.968 1.059 3.97-1.059v-6.085"/><path id="path830" stroke-linecap="butt" stroke-linejoin="miter" d="M6.615 293.031v-10.054"/><path id="path832" stroke-linecap="butt" stroke-linejoin="miter" d="M10.583 294.09v-7.144"/><circle id="path836" cx="12.568" cy="284.035" r="1.191" fill-opacity=".627" stroke-linecap="round" stroke-linejoin="round" opacity="1"/><path id="path840" stroke-linecap="butt" stroke-linejoin="miter" d="M12.561 287.356c-.845-1.171-2.637-1.861-2.465-3.593.381-3.124 4.669-3.053 4.932.012.149 1.737-1.631 2.398-2.467 3.581z"/></g><path id="path912" fill="#212121" fill-opacity="1" stroke-width=".265" d="M12.7 292.37a4.113 4.113 0 00-4.101-4.101 4.1 4.1 0 00-3.973 3.101c-1.23.205-2.179 1.256-2.179 2.538a2.57 2.57 0 002.564 2.563H12.7c1.128 0 2.05-.923 2.05-2.05 0-1.128-.922-2.051-2.05-2.051z"/><g font-family="sans-serif" style="line-height:1.25" id="text994" fill="#fff" fill-opacity="1" stroke="none" stroke-width=".265" aria-label="?" font-size="10.583" font-style="normal" font-weight="400" letter-spacing="0" word-spacing="0"><path id="path1010" fill="#fff" fill-opacity="1" stroke-width=".265" d="M8.433 293.657a.638.638 0 000 1.277.638.638 0 000-1.277z" font-family="Fira Sans" font-size="7.056" style="-inkscape-font-specification:'Fira Sans Bold'" font-stretch="normal" font-style="normal" font-variant="normal" font-weight="700"/></g><path id="path1010-3" fill="#fff" fill-opacity="1" stroke="none" stroke-width=".265" d="M6.316 293.657a.638.638 0 000 1.277.638.638 0 000-1.277z" font-family="Fira Sans" font-size="7.056" font-stretch="normal" font-style="normal" font-variant="normal" font-weight="700" letter-spacing="0" word-spacing="0" style="line-height:1.25;-inkscape-font-specification:'Fira Sans Bold'"/><path id="path1010-6" fill="#fff" fill-opacity="1" stroke="none" stroke-width=".265" d="M10.55 293.657a.638.638 0 000 1.277.638.638 0 000-1.277z" font-family="Fira Sans" font-size="7.056" font-stretch="normal" font-style="normal" font-variant="normal" font-weight="700" letter-spacing="0" word-spacing="0" style="line-height:1.25;-inkscape-font-specification:'Fira Sans Bold'"/></g><style id="style902" type="text/css"/></svg>